<?xml version="1.0" encoding="UTF-8" standalone="no"?>
<svg
   xmlns:dc="http://purl.org/dc/elements/1.1/"
   xmlns:cc="http://creativecommons.org/ns#"
   xmlns:rdf="http://www.w3.org/1999/02/22-rdf-syntax-ns#"
   xmlns:svg="http://www.w3.org/2000/svg"
   xmlns="http://www.w3.org/2000/svg"
   xmlns:sodipodi="http://sodipodi.sourceforge.net/DTD/sodipodi-0.dtd"
   xmlns:inkscape="http://www.inkscape.org/namespaces/inkscape"
   version="1.1"
   id="svg63"
   xml:space="preserve"
   width="533.33331"
   height="533.33331"
   viewBox="0 0 533.33331 533.33331"
   sodipodi:docname="logo2.svg"
   inkscape:version="1.0.1 (3bc2e813f5, 2020-09-07)"><metadata
     id="metadata69"><rdf:RDF><cc:Work
         rdf:about=""><dc:format>image/svg+xml</dc:format><dc:type
           rdf:resource="http://purl.org/dc/dcmitype/StillImage" /><dc:title></dc:title></cc:Work></rdf:RDF></metadata><defs
     id="defs67"><clipPath
       clipPathUnits="userSpaceOnUse"
       id="clipPath81"><path
         d="M 0,400 H 400 V 0 H 0 Z"
         id="path79" /></clipPath></defs><sodipodi:namedview
     pagecolor="#ffffff"
     bordercolor="#666666"
     borderopacity="1"
     objecttolerance="10"
     gridtolerance="10"
     guidetolerance="10"
     inkscape:pageopacity="0"
     inkscape:pageshadow="2"
     inkscape:window-width="2121"
     inkscape:window-height="1474"
     id="namedview65"
     showgrid="false"
     inkscape:zoom="1.8900001"
     inkscape:cx="266.66666"
     inkscape:cy="266.66666"
     inkscape:window-x="1385"
     inkscape:window-y="500"
     inkscape:window-maximized="0"
     inkscape:current-layer="g71" /><g
     id="g71"
     inkscape:groupmode="layer"
     inkscape:label="athens-technologies-logo-vectors"
     transform="matrix(1.3333333,0,0,-1.3333333,0,533.33333)"><path
       d="M 91.666665,173.01587 H 307.93651 v 53.96826 H 91.666665 Z"
       style="fill:#ffffff;fill-opacity:0;fill-rule:nonzero;stroke:none;stroke-width:0.270089"
       id="path73" /><g
       id="g75"><g
         id="g77"
         clip-path="url(#clipPath81)"><g
           id="g83"
           transform="translate(187.5692,207.1919)"><path
             d="m 0,0 c 0,2.232 -1.611,4.091 -3.989,4.091 -2.149,0 -3.905,-1.839 -3.905,-4.091 0,-2.148 1.756,-4.029 3.905,-4.029 C -1.757,-4.029 0,-2.169 0,0 m -0.041,-5.703 v 1.777 h -0.041 c -0.807,-1.364 -2.253,-2.066 -3.886,-2.066 -3.347,0 -6.074,2.521 -6.074,5.827 0,3.658 2.623,6.22 5.992,6.22 1.673,0 3.079,-0.62 3.968,-1.923 h 0.041 V 5.745 H 2.107 V -5.703 Z"
             style="fill:#1d1d1b;fill-opacity:1;fill-rule:nonzero;stroke:none"
             id="path85" /></g><g
           id="g87"
           transform="translate(192.3759,201.4893)"><path
             d="m 0,0 v 15.291 h 2.148 v -3.844 h 1.88 V 9.484 H 2.148 L 2.148,0 Z"
             style="fill:#1d1d1b;fill-opacity:1;fill-rule:nonzero;stroke:none"
             id="path89" /></g><g
           id="g91"
           transform="translate(205.871,201.4893)"><path
             d="m 0,0 v 6.219 c 0,2.46 -0.949,3.575 -2.851,3.575 -1.88,0 -3.017,-1.363 -3.017,-3.595 V 0 h -2.149 v 15.291 h 2.149 v -5.063 h 0.041 c 0.683,1.013 1.777,1.529 3.204,1.529 2.727,0 4.773,-1.736 4.773,-4.877 L 2.15,0 Z"
             style="fill:#1d1d1b;fill-opacity:1;fill-rule:nonzero;stroke:none"
             id="path93" /></g><g
           id="g95"
           transform="translate(219.5223,207.936)"><path
             d="M 0,0 C -0.166,1.942 -1.881,3.347 -3.72,3.347 -5.477,3.347 -7.233,1.963 -7.397,0 Z m -7.397,-1.653 c 0.496,-1.901 2.003,-3.12 3.76,-3.12 1.342,0 2.604,0.702 3.264,1.921 h 2.148 c -0.886,-2.356 -3.037,-3.884 -5.495,-3.884 -3.224,0 -5.826,2.851 -5.826,5.909 0,3.617 2.727,6.138 5.765,6.138 3.367,0 5.929,-2.604 5.929,-5.89 0,-0.351 0,-0.682 -0.062,-1.074 z"
             style="fill:#1d1d1b;fill-opacity:1;fill-rule:nonzero;stroke:none"
             id="path97" /></g><g
           id="g99"
           transform="translate(231.7294,201.4893)"><path
             d="M 0,0 V 6.24 C 0,8.657 -0.949,9.794 -2.85,9.794 -4.73,9.794 -5.867,8.41 -5.867,6.26 V 0 h -2.15 v 11.447 h 2.004 v -1.219 h 0.042 c 0.848,1.095 2.026,1.529 3.348,1.529 2.748,0 4.773,-1.736 4.773,-4.897 L 2.15,0 Z"
             style="fill:#1d1d1b;fill-opacity:1;fill-rule:nonzero;stroke:none"
             id="path101" /></g><g
           id="g103"
           transform="translate(241.1356,209.8994)"><path
             d="m 0,0 c -0.103,0.826 -0.578,1.384 -1.467,1.384 -0.826,0 -1.344,-0.558 -1.344,-1.219 0,-0.971 0.993,-1.261 2.129,-1.612 1.613,-0.496 3.099,-1.467 3.099,-3.595 0,-2.211 -1.611,-3.657 -3.843,-3.657 -2.066,0 -4.049,1.404 -4.049,4.049 h 2.149 c 0.103,-1.384 0.805,-2.086 1.941,-2.086 0.992,0 1.654,0.64 1.654,1.57 0,0.785 -0.599,1.301 -1.943,1.736 -2.81,0.888 -3.285,2.107 -3.285,3.409 0,2.025 1.715,3.368 3.596,3.368 1.901,0 3.45,-1.323 3.512,-3.347 z"
             style="fill:#1d1d1b;fill-opacity:1;fill-rule:nonzero;stroke:none"
             id="path105" /></g><g
           id="g107"
           transform="translate(178.1268,180.9956)"><path
             d="M 0,0 V 15.291 H 2.148 V 11.448 H 4.027 V 9.484 H 2.148 V 0 Z"
             style="fill:#1d1d1b;fill-opacity:1;fill-rule:nonzero;stroke:none"
             id="path109" /></g><g
           id="g111"
           transform="translate(192.2919,187.4429)"><path
             d="M 0,0 C -0.166,1.941 -1.881,3.347 -3.719,3.347 -5.477,3.347 -7.233,1.963 -7.397,0 Z m -7.397,-1.654 c 0.496,-1.9 2.003,-3.119 3.76,-3.119 1.342,0 2.604,0.702 3.264,1.921 h 2.148 c -0.886,-2.356 -3.037,-3.884 -5.494,-3.884 -3.225,0 -5.827,2.851 -5.827,5.909 0,3.616 2.727,6.137 5.765,6.137 3.367,0 5.929,-2.603 5.929,-5.889 0,-0.351 0,-0.682 -0.062,-1.075 z"
             style="fill:#1d1d1b;fill-opacity:1;fill-rule:nonzero;stroke:none"
             id="path113" /></g><g
           id="g115"
           transform="translate(207.3417,184.7773)"><path
             d="m 0,0 c -0.909,-2.583 -3.101,-4.071 -5.642,-4.071 -3.285,0 -5.868,2.645 -5.868,5.909 0,3.452 2.5,6.138 5.849,6.138 2.601,0 4.978,-1.632 5.661,-4.112 h -2.376 c -0.641,1.343 -1.674,2.149 -3.225,2.149 -2.252,0 -3.76,-1.716 -3.76,-4.051 0,-2.273 1.549,-4.069 3.719,-4.069 1.467,0 2.645,0.785 3.245,2.107 z"
             style="fill:#1d1d1b;fill-opacity:1;fill-rule:nonzero;stroke:none"
             id="path117" /></g><g
           id="g119"
           transform="translate(217.2704,180.9956)"><path
             d="m 0,0 v 6.22 c 0,2.459 -0.95,3.574 -2.851,3.574 -1.88,0 -3.017,-1.363 -3.017,-3.595 V 0 h -2.149 v 15.291 h 2.149 v -5.063 h 0.041 c 0.683,1.013 1.777,1.529 3.203,1.529 2.728,0 4.774,-1.735 4.774,-4.876 L 2.15,0 Z"
             style="fill:#1d1d1b;fill-opacity:1;fill-rule:nonzero;stroke:none"
             id="path121" /></g><g
           id="g123"
           transform="translate(230.0575,180.9956)"><path
             d="m 0,0 v 6.24 c 0,2.417 -0.949,3.554 -2.851,3.554 -1.88,0 -3.017,-1.384 -3.017,-3.533 V 0 h -2.149 v 11.448 h 2.004 v -1.22 h 0.041 c 0.848,1.096 2.026,1.529 3.348,1.529 2.749,0 4.774,-1.735 4.774,-4.897 L 2.15,0 Z"
             style="fill:#1d1d1b;fill-opacity:1;fill-rule:nonzero;stroke:none"
             id="path125" /></g><g
           id="g127"
           transform="translate(240.33,190.79)"><path
             d="m 0,0 c -2.149,0 -4.009,-1.819 -4.009,-4.05 0,-2.17 1.797,-4.07 3.967,-4.07 2.253,0 4.093,1.776 4.093,4.091 C 4.051,-1.798 2.252,0 0,0 m -0.062,-10.083 c -3.224,0 -6.095,2.748 -6.095,5.971 0,3.492 2.748,6.075 6.261,6.075 3.162,0 6.136,-2.48 6.095,-6.116 -0.041,-3.058 -2.603,-5.93 -6.261,-5.93"
             style="fill:#1d1d1b;fill-opacity:1;fill-rule:nonzero;stroke:none"
             id="path129" /></g><path
           d="m 248.574,196.287 h 2.149 v -15.291 h -2.149 z"
           style="fill:#1d1d1b;fill-opacity:1;fill-rule:nonzero;stroke:none"
           id="path131" /><g
           id="g133"
           transform="translate(258.9061,190.79)"><path
             d="m 0,0 c -2.149,0 -4.009,-1.819 -4.009,-4.05 0,-2.17 1.797,-4.07 3.968,-4.07 2.252,0 4.092,1.776 4.092,4.091 C 4.051,-1.798 2.252,0 0,0 m -0.062,-10.083 c -3.224,0 -6.095,2.748 -6.095,5.971 0,3.492 2.748,6.075 6.261,6.075 3.162,0 6.136,-2.48 6.095,-6.116 -0.041,-3.058 -2.603,-5.93 -6.261,-5.93"
             style="fill:#1d1d1b;fill-opacity:1;fill-rule:nonzero;stroke:none"
             id="path135" /></g><g
           id="g137"
           transform="translate(276.5917,186.7192)"><path
             d="m 0,0 c 0,2.687 -2.047,4.071 -4.029,4.071 -2.129,0 -3.927,-1.84 -3.927,-4.071 0,-2.19 1.818,-4.049 3.948,-4.049 C -1.51,-4.049 0,-1.86 0,0 m -0.041,-4.215 c -0.889,-1.199 -2.314,-1.798 -3.947,-1.798 -3.286,0 -6.116,2.831 -6.116,5.93 0,3.451 2.685,6.117 6.137,6.117 1.487,0 3.057,-0.62 3.967,-1.632 v 1.322 h 2.148 v -9.939 c 0,-3.72 -2.293,-6.013 -6.177,-6.013 -2.624,0 -4.691,1.384 -5.661,3.616 h 2.396 c 0.806,-1.136 1.88,-1.653 3.286,-1.653 2.623,0 4.008,1.426 4.008,4.05 z"
             style="fill:#1d1d1b;fill-opacity:1;fill-rule:nonzero;stroke:none"
             id="path139" /></g><path
           d="m 281.423,192.443 h 2.149 v -11.448 h -2.149 z m 0,3.844 h 2.149 v -2.521 h -2.149 z"
           style="fill:#1d1d1b;fill-opacity:1;fill-rule:nonzero;stroke:none"
           id="path141" /><g
           id="g143"
           transform="translate(295.1884,187.4429)"><path
             d="M 0,0 C -0.166,1.941 -1.882,3.347 -3.72,3.347 -5.478,3.347 -7.233,1.963 -7.397,0 Z m -7.397,-1.654 c 0.496,-1.9 2.003,-3.119 3.759,-3.119 1.342,0 2.604,0.702 3.265,1.921 h 2.148 c -0.886,-2.356 -3.037,-3.884 -5.495,-3.884 -3.224,0 -5.827,2.851 -5.827,5.909 0,3.616 2.728,6.137 5.765,6.137 3.368,0 5.93,-2.603 5.93,-5.889 0,-0.351 0,-0.682 -0.062,-1.075 z"
             style="fill:#1d1d1b;fill-opacity:1;fill-rule:nonzero;stroke:none"
             id="path145" /></g><g
           id="g147"
           transform="translate(303.9042,189.4058)"><path
             d="m 0,0 c -0.104,0.826 -0.578,1.384 -1.467,1.384 -0.826,0 -1.344,-0.558 -1.344,-1.219 0,-0.971 0.993,-1.261 2.129,-1.611 1.612,-0.496 3.099,-1.468 3.099,-3.596 0,-2.211 -1.612,-3.657 -3.843,-3.657 -2.066,0 -4.05,1.405 -4.05,4.049 h 2.15 c 0.103,-1.384 0.805,-2.086 1.941,-2.086 0.992,0 1.653,0.641 1.653,1.57 0,0.785 -0.598,1.301 -1.942,1.736 -2.81,0.888 -3.285,2.108 -3.285,3.409 0,2.025 1.715,3.368 3.596,3.368 1.9,0 3.45,-1.322 3.511,-3.347 z"
             style="fill:#1d1d1b;fill-opacity:1;fill-rule:nonzero;stroke:none"
             id="path149" /></g><g
           id="g151"
           transform="translate(115.8173,196.8306)"><path
             d="M 0,0 H 22.146 V 28.551 C 12.613,28.526 4.32,23.246 0.002,15.456 H 0 Z"
             style="fill:#3ea3ff;fill-opacity:1;fill-rule:nonzero;stroke:none"
             id="path153" /></g><g
           id="g155"
           transform="translate(163.2098,196.8306)"><path
             d="m 0,0 c 0.129,1.039 0.204,2.095 0.204,3.169 0,14.019 -11.364,25.383 -25.383,25.383 -0.023,0 -0.046,-0.001 -0.068,-0.001 V 12.691 L -12.556,0 Z"
             style="fill:#0579f5;fill-opacity:1;fill-rule:nonzero;stroke:none"
             id="path157" /></g><g
           id="g159"
           transform="translate(150.6542,196.8306)"><path
             d="m 0,0 h -12.623 v -22.213 c 12.944,0 23.617,9.692 25.179,22.213 z"
             style="fill:#026097;fill-opacity:1;fill-rule:nonzero;stroke:none"
             id="path161" /></g><g
           id="g163"
           transform="translate(138.0311,174.6172)"><path
             d="M 0,0 Z"
             style="fill:#525252;fill-opacity:1;fill-rule:nonzero;stroke:none"
             id="path165" /></g><g
           id="g167"
           transform="translate(115.8173,196.8306)"><path
             d="m 0,0 v 0 15.456 c -1.031,0.173 -2.089,0.268 -3.169,0.268 -10.477,0 -18.969,-8.493 -18.969,-18.969 0,-5.218 2.109,-9.944 5.519,-13.374 z"
             style="fill:#0579f5;fill-opacity:1;fill-rule:nonzero;stroke:none"
             id="path169" /></g><g
           id="g171"
           transform="translate(112.6483,174.6172)"><path
             d="M 0,0 V 0 H 25.383 L 3.169,22.213 -13.45,5.594 C -10.015,2.14 -5.258,0 0,0"
             style="fill:#026097;fill-opacity:1;fill-rule:nonzero;stroke:none"
             id="path173" /></g></g></g></g></svg>
